<svg width="1000" height="1000" viewBox="0 0 1000 1000" fill="none" xmlns="http://www.w3.org/2000/svg">
<g clip-path="url(#clip0_4140_32460)">
<path d="M560 39H505H440.989C436.989 44.6667 429.589 58.4 431.989 68C434.389 77.6 438.989 76 440.989 74C442.656 77.6667 443.189 86.4 431.989 92C420.789 97.6 437.322 101 446.989 102C451.656 126 453.189 183.6 421.989 222C382.988 270 361.988 258 398.989 370C414.185 416 390.988 473 374.988 494C368.988 506.333 358.988 568 374.988 594V817C367.321 825.333 356.988 877 374.988 922C387.795 954.016 467.999 964 505 964C542 964 613.194 954.016 626 922C644 877 633.667 825.333 626 817V594C642 568 632 506.333 626 494C610 473 586.804 416 602 370C639 258 618 270 579 222C547.8 183.6 549.333 126 554 102C563.667 101 580.2 97.6 569 92C557.8 86.4 558.333 77.6667 560 74C562 76 566.6 77.6 569 68C571.4 58.4 564 44.6667 560 39Z" fill="#CFCFCF"/>
</g>
<defs>
<clipPath id="clip0_4140_32460">
<rect width="271" height="925" fill="white" transform="translate(365 38)"/>
</clipPath>
</defs>
</svg>
