<svg width="588" height="588" viewBox="0 0 588 588" fill="none" xmlns="http://www.w3.org/2000/svg">
<g clip-path="url(#clip0_4140_32456)">
<path d="M389 124C381 118.4 376.333 99.6666 375 90.9999C372 83.6666 354.2 68.7999 307 67.9999C224.047 66.594 217.047 83.6666 214.047 90.9999C212.713 99.6666 208.047 118.4 200.046 124C192.046 129.6 190.713 155.667 191.046 168V476C196.046 487.667 209.647 512.2 224.047 517C238.448 521.8 277.999 522 301 522C324 522 350.6 521.8 365 517C379.4 512.2 393 487.667 398 476V168C398.333 155.667 397 129.6 389 124Z" fill="#CFCFCF"/>
</g>
<defs>
<clipPath id="clip0_4140_32456">
<rect width="207" height="452" fill="white" transform="translate(191 68)"/>
</clipPath>
</defs>
</svg>
